o 
v 0.6877369866005062 0.40174485342270805 0.34002780770110863
v -0.1643710353488571 0.8477091788993975 0.06611588877156524
v 0.6877369866005061 -0.1216210978289409 -0.5120802142482547
v -0.16437103534885722 0.3243432276477486 -0.785992133177798
v -0.6877369866005061 0.1216210978289409 0.5120802142482547
v 0.16437103534885722 -0.3243432276477486 0.785992133177798
v -0.6877369866005062 -0.40174485342270805 -0.34002780770110863
v 0.1643710353488571 -0.8477091788993975 -0.06611588877156524
v -0.6877369866005061 0.1216210978289409 0.5120802142482547
v -0.1643710353488571 0.8477091788993975 0.06611588877156524
v 0.16437103534885722 -0.3243432276477486 0.785992133177798
v 0.6877369866005062 0.40174485342270805 0.34002780770110863
v 0.1643710353488571 -0.8477091788993975 -0.06611588877156524
v 0.6877369866005061 -0.1216210978289409 -0.5120802142482547
v -0.6877369866005062 -0.40174485342270805 -0.34002780770110863
v -0.16437103534885722 0.3243432276477486 -0.785992133177798
v 0.16437103534885722 -0.3243432276477486 0.785992133177798
v 0.6877369866005062 0.40174485342270805 0.34002780770110863
v 0.1643710353488571 -0.8477091788993975 -0.06611588877156524
v 0.6877369866005061 -0.1216210978289409 -0.5120802142482547
v -0.1643710353488571 0.8477091788993975 0.06611588877156524
v -0.6877369866005061 0.1216210978289409 0.5120802142482547
v -0.16437103534885722 0.3243432276477486 -0.785992133177798
v -0.6877369866005062 -0.40174485342270805 -0.34002780770110863
vt 0 1
vt 1 1
vt 0 0
vt 1 0
vt 0 1
vt 1 1
vt 0 0
vt 1 0
vt 0 1
vt 1 1
vt 0 0
vt 1 0
vt 0 1
vt 1 1
vt 0 0
vt 1 0
vt 0 1
vt 1 1
vt 0 0
vt 1 0
vt 0 1
vt 1 1
vt 0 0
vt 1 0
vn 0.523365951251649 0.7260880810704566 -0.4459643254766895
vn 0.523365951251649 0.7260880810704566 -0.4459643254766895
vn 0.523365951251649 0.7260880810704566 -0.4459643254766895
vn 0.523365951251649 0.7260880810704566 -0.4459643254766895
vn -0.523365951251649 -0.7260880810704566 0.4459643254766895
vn -0.523365951251649 -0.7260880810704566 0.4459643254766895
vn -0.523365951251649 -0.7260880810704566 0.4459643254766895
vn -0.523365951251649 -0.7260880810704566 0.4459643254766895
vn -2.7755575615628914e-17 0.523365951251649 0.8521080219493633
vn -2.7755575615628914e-17 0.523365951251649 0.8521080219493633
vn -2.7755575615628914e-17 0.523365951251649 0.8521080219493633
vn -2.7755575615628914e-17 0.523365951251649 0.8521080219493633
vn 2.7755575615628914e-17 -0.523365951251649 -0.8521080219493633
vn 2.7755575615628914e-17 -0.523365951251649 -0.8521080219493633
vn 2.7755575615628914e-17 -0.523365951251649 -0.8521080219493633
vn 2.7755575615628914e-17 -0.523365951251649 -0.8521080219493633
vn 0.8521080219493633 -0.4459643254766895 0.27391191892954336
vn 0.8521080219493633 -0.4459643254766895 0.27391191892954336
vn 0.8521080219493633 -0.4459643254766895 0.27391191892954336
vn 0.8521080219493633 -0.4459643254766895 0.27391191892954336
vn -0.8521080219493633 0.4459643254766895 -0.27391191892954336
vn -0.8521080219493633 0.4459643254766895 -0.27391191892954336
vn -0.8521080219493633 0.4459643254766895 -0.27391191892954336
vn -0.8521080219493633 0.4459643254766895 -0.27391191892954336
f 1/1/1 3/3/3 2/2/2
f 3/3/3 4/4/4 2/2/2
f 5/5/5 7/7/7 6/6/6
f 7/7/7 8/8/8 6/6/6
f 9/9/9 11/11/11 10/10/10
f 11/11/11 12/12/12 10/10/10
f 13/13/13 15/15/15 14/14/14
f 15/15/15 16/16/16 14/14/14
f 17/17/17 19/19/19 18/18/18
f 19/19/19 20/20/20 18/18/18
f 21/21/21 23/23/23 22/22/22
f 23/23/23 24/24/24 22/22/22
